<svg version="1" xmlns="http://www.w3.org/2000/svg" width="256" height="256" viewBox="0 0 192.000000 192.000000"><path d="M0 96v96h192V0H0v96zm81.7-58.3C93.2 53.6 104.4 69 106.5 72c3.2 4.8 3.3 5 .6 2l-3-3.5-.2 28c0 15.4-.3 31.1-.5 34.8-.4 6.3-.2 7.1 2.7 11.5 1.7 2.6 2.1 3.6.9 2.2-3.6-4.1-37.3-49.9-42.6-57.9l-4.9-7.4-.3 50.7L59 183l-23.5-.2-23.5-.3-.3-86.2-.2-86.3 17-.3c9.4-.1 20.4-.4 24.6-.5l7.5-.2 21.1 28.7zm96.5 58.8L178 183h-22.5c-16.1 0-22.6-.3-23.1-1.2-.8-1.3-1.4-46.8-1.7-123.1l-.2-48.7h48l-.3 86.5z"/></svg>